<?xml version="1.0" encoding="UTF-8" standalone="no"?>
<svg
   height="24"
   viewBox="0 0 24 24"
   width="24"
   fill="#fff"
   version="1.1"
   id="svg6"
   sodipodi:docname="image-download.svg"
   inkscape:version="1.1 (c68e22c387, 2021-05-23)"
   xmlns:inkscape="http://www.inkscape.org/namespaces/inkscape"
   xmlns:sodipodi="http://sodipodi.sourceforge.net/DTD/sodipodi-0.dtd"
   xmlns="http://www.w3.org/2000/svg"
   xmlns:svg="http://www.w3.org/2000/svg">
  <defs
     id="defs10" />
  <sodipodi:namedview
     id="namedview8"
     pagecolor="#ffffff"
     bordercolor="#999999"
     borderopacity="1"
     inkscape:pageshadow="0"
     inkscape:pageopacity="0"
     inkscape:pagecheckerboard="0"
     showgrid="false"
     fit-margin-left="2"
     fit-margin-top="2"
     fit-margin-bottom="2"
     fit-margin-right="2"
     inkscape:zoom="8.6666667"
     inkscape:cx="-32.019231"
     inkscape:cy="9.75"
     inkscape:window-width="1920"
     inkscape:window-height="1017"
     inkscape:window-x="-8"
     inkscape:window-y="-8"
     inkscape:window-maximized="1"
     inkscape:current-layer="svg6" />
  <path
     d="M 0,0 H 24 V 24 H 0 Z"
     fill="none"
     id="path2" />
  <path
     d="m 4,4 h 7 V 2 H 2 v 9 h 2 z m 6,9 -4,5 h 12 l -3,-4 -2.03,2.71 z M 17,8.5 C 17,7.67 16.33,7 15.5,7 14.67,7 14,7.67 14,8.5 14,9.33 14.67,10 15.5,10 16.33,10 17,9.33 17,8.5 Z M 22,2 h -9 v 2 h 7 v 7 h 2 z m -2,18 h -7 v 2 h 9 V 13 H 20 Z M 4,13 H 2 v 9 h 9 V 20 H 4 Z"
     id="path4" />
</svg>
