<?xml version="1.0" encoding="UTF-8"?>
<svg xmlns="http://www.w3.org/2000/svg" xmlns:xlink="http://www.w3.org/1999/xlink" width="24px" height="24px" viewBox="0 0 24 24" version="1.1">
<g id="surface1">
<path style=" stroke:none;fill-rule:nonzero;fill:rgb(0%,0%,0%);fill-opacity:1;" d="M 13.410156 1.410156 C 13.410156 2.191406 12.777344 2.820312 12 2.820312 C 11.222656 2.820312 10.589844 2.191406 10.589844 1.410156 C 10.589844 0.632812 11.222656 0 12 0 C 12.777344 0 13.410156 0.632812 13.410156 1.410156 Z M 13.410156 1.410156 "/>
<path style=" stroke:none;fill-rule:nonzero;fill:rgb(69.803922%,69.803922%,69.803922%);fill-opacity:1;" d="M 12 21.179688 C 11.222656 21.179688 10.589844 21.8125 10.589844 22.589844 C 10.589844 23.367188 11.222656 24 12 24 C 12.777344 24 13.410156 23.367188 13.410156 22.589844 C 13.410156 21.8125 12.777344 21.179688 12 21.179688 "/>
<path style=" stroke:none;fill-rule:nonzero;fill:rgb(69.803922%,69.803922%,69.803922%);fill-opacity:1;" d="M 17.292969 1.410156 C 16.515625 1.410156 15.882812 2.042969 15.882812 2.820312 C 15.882812 3.601562 16.515625 4.234375 17.292969 4.234375 C 18.070312 4.234375 18.703125 3.601562 18.703125 2.820312 C 18.707031 2.042969 18.074219 1.410156 17.292969 1.410156 "/>
<path style=" stroke:none;fill-rule:nonzero;fill:rgb(69.803922%,69.803922%,69.803922%);fill-opacity:1;" d="M 6.707031 19.761719 C 5.929688 19.761719 5.296875 20.394531 5.296875 21.171875 C 5.296875 21.953125 5.929688 22.585938 6.707031 22.585938 C 7.484375 22.585938 8.117188 21.953125 8.117188 21.171875 C 8.117188 20.394531 7.484375 19.761719 6.707031 19.761719 "/>
<path style=" stroke:none;fill-rule:nonzero;fill:rgb(7.058824%,7.058824%,7.058824%);fill-opacity:1;" d="M 6.707031 1.410156 C 5.929688 1.410156 5.296875 2.042969 5.296875 2.820312 C 5.296875 3.601562 5.929688 4.234375 6.707031 4.234375 C 7.484375 4.234375 8.117188 3.601562 8.117188 2.820312 C 8.117188 2.042969 7.484375 1.410156 6.707031 1.410156 "/>
<path style=" stroke:none;fill-rule:nonzero;fill:rgb(69.803922%,69.803922%,69.803922%);fill-opacity:1;" d="M 17.292969 19.761719 C 16.515625 19.761719 15.882812 20.394531 15.882812 21.171875 C 15.882812 21.953125 16.515625 22.585938 17.292969 22.585938 C 18.070312 22.585938 18.703125 21.953125 18.703125 21.171875 C 18.707031 20.394531 18.074219 19.761719 17.292969 19.761719 "/>
<path style=" stroke:none;fill-rule:nonzero;fill:rgb(34.901961%,34.901961%,34.901961%);fill-opacity:1;" d="M 1.410156 10.589844 C 0.632812 10.589844 0 11.222656 0 12 C 0 12.777344 0.632812 13.410156 1.410156 13.410156 C 2.1875 13.410156 2.820312 12.777344 2.820312 12 C 2.820312 11.222656 2.195312 10.589844 1.410156 10.589844 "/>
<path style=" stroke:none;fill-rule:nonzero;fill:rgb(69.803922%,69.803922%,69.803922%);fill-opacity:1;" d="M 22.589844 10.589844 C 21.8125 10.589844 21.179688 11.222656 21.179688 12 C 21.179688 12.777344 21.8125 13.410156 22.589844 13.410156 C 23.367188 13.410156 24 12.777344 24 12 C 24 11.222656 23.367188 10.589844 22.589844 10.589844 "/>
<path style=" stroke:none;fill-rule:nonzero;fill:rgb(14.117647%,14.117647%,14.117647%);fill-opacity:1;" d="M 2.820312 5.292969 C 2.042969 5.292969 1.410156 5.925781 1.410156 6.703125 C 1.410156 7.480469 2.042969 8.113281 2.820312 8.113281 C 3.601562 8.113281 4.234375 7.480469 4.234375 6.703125 C 4.238281 5.925781 3.605469 5.292969 2.820312 5.292969 "/>
<path style=" stroke:none;fill-rule:nonzero;fill:rgb(69.803922%,69.803922%,69.803922%);fill-opacity:1;" d="M 21.179688 15.882812 C 20.398438 15.882812 19.765625 16.515625 19.765625 17.292969 C 19.765625 18.070312 20.398438 18.703125 21.179688 18.703125 C 21.957031 18.703125 22.589844 18.070312 22.589844 17.292969 C 22.589844 16.515625 21.957031 15.882812 21.179688 15.882812 "/>
<path style=" stroke:none;fill-rule:nonzero;fill:rgb(56.078431%,56.078431%,56.078431%);fill-opacity:1;" d="M 2.820312 15.882812 C 2.042969 15.882812 1.410156 16.515625 1.410156 17.292969 C 1.410156 18.070312 2.042969 18.703125 2.820312 18.703125 C 3.601562 18.703125 4.234375 18.070312 4.234375 17.292969 C 4.238281 16.515625 3.605469 15.882812 2.820312 15.882812 "/>
<path style=" stroke:none;fill-rule:nonzero;fill:rgb(69.803922%,69.803922%,69.803922%);fill-opacity:1;" d="M 21.179688 5.292969 C 20.398438 5.292969 19.765625 5.925781 19.765625 6.703125 C 19.765625 7.480469 20.398438 8.113281 21.179688 8.113281 C 21.957031 8.113281 22.589844 7.480469 22.589844 6.703125 C 22.589844 5.925781 21.957031 5.292969 21.179688 5.292969 "/>
</g>
</svg>
